<svg viewBox="0 0 32 32" fill="none" xmlns="http://www.w3.org/2000/svg" id="Linux--Streamline-Unicons" height="32" width="32">
  <desc>
    Linux Streamline Icon: https://streamlinehq.com
  </desc>
  <path d="M27.962400000000002 24.389866666666666c-0.15506666666666666 -0.3101333333333333 -0.31026666666666664 -0.6204 -0.31026666666666664 -0.9306666666666665 0 -0.6204 -0.3101333333333333 -1.0857333333333332 -0.7754666666666666 -1.5510666666666666 -0.1552 -0.15506666666666666 -0.46533333333333327 -0.3101333333333333 -0.6205333333333333 -0.3101333333333333 0.9306666666666665 -2.792 -0.46533333333333327 -5.584 -2.0164 -7.6004000000000005 -1.2408 -1.8611999999999997 -3.102133333333333 -3.2571999999999997 -2.9470666666666667 -5.738933333333333 0 -2.9470666666666667 0.31026666666666664 -8.375866666666667 -5.118533333333334 -7.910533333333333C10.590266666666666 0.6582666666666667 12.141333333333332 6.397333333333333 11.986133333333331 8.413733333333333c0 1.7062666666666666 -0.7754666666666666 3.4124 -2.0164 4.8084 -0.3101333333333333 0.3101333333333333 -0.6204 0.7754666666666666 -0.7754666666666666 1.0857333333333332 -1.5510666666666666 1.861333333333333 -2.3266666666666667 4.343066666666666 -2.3266666666666667 6.6696 -0.31026666666666664 0.31026666666666664 -0.6204 0.6205333333333333 -0.7756 0.9306666666666665 -0.15506666666666666 0.1552 -0.3101333333333333 0.31026666666666664 -0.3101333333333333 0.46533333333333327 -0.1552 0.1552 -0.46533333333333327 0.31026666666666664 -0.7756 0.46533333333333327 -0.6204 0.15506666666666666 -1.0857333333333332 0.46533333333333327 -1.396 1.0857333333333332 -0.15506666666666666 0.46533333333333327 -0.3101333333333333 1.0858666666666665 -0.15506666666666666 1.7062666666666666 0.15506666666666666 0.3101333333333333 0.15506666666666666 0.6204 0 1.0857333333333332 -0.31026666666666664 0.6204 -0.31026666666666664 1.396 0 2.1714666666666664 0.46533333333333327 0.6205333333333333 1.2409333333333332 0.7756 2.3266666666666667 0.9306666666666665 0.7754666666666666 0 1.7061333333333333 0.31026666666666664 2.481733333333333 0.6205333333333333 0.7754666666666666 0.46533333333333327 1.7061333333333333 0.7754666666666666 2.6368 0.7754666666666666 0.46533333333333327 0 1.0857333333333332 -0.15506666666666666 1.5510666666666666 -0.3101333333333333 0.46533333333333327 -0.31026666666666664 0.7756 -0.6205333333333333 0.9306666666666665 -1.0858666666666665 0.6204 0 1.5510666666666666 -0.3101333333333333 2.6368 -0.3101333333333333 0.9306666666666665 0 1.861333333333333 0.3101333333333333 3.102266666666667 0.15506666666666666 0 0.15506666666666666 0 0.31026666666666664 0.15506666666666666 0.46533333333333327 0.31026666666666664 0.7756 1.0857333333333332 1.396 2.0164 1.5510666666666666h0.31026666666666664c1.2408 -0.15506666666666666 2.481733333333333 -0.7754666666666666 3.2571999999999997 -1.7061333333333333 0.6205333333333333 -0.6205333333333333 1.396 -1.0858666666666665 2.1715999999999998 -1.396 0.9306666666666665 -0.46533333333333327 1.5510666666666666 -0.7756 1.7061333333333333 -1.5510666666666666 0.15506666666666666 -1.0857333333333332 -0.15506666666666666 -1.7062666666666666 -0.7754666666666666 -2.6369333333333334ZM17.259866666666667 4.536c0.9306666666666665 0.15506666666666666 1.7062666666666666 0.9306666666666665 1.5510666666666666 1.861333333333333 0 0.46533333333333327 -0.15506666666666666 0.9306666666666665 -0.46533333333333327 1.396h-0.15506666666666666c-0.31026666666666664 -0.1552 -0.46533333333333327 -0.1552 -0.6204 -0.31026666666666664 0.15506666666666666 -0.15506666666666666 0.15506666666666666 -0.46533333333333327 0.3101333333333333 -0.7754666666666666 0 -0.6205333333333333 -0.3101333333333333 -1.0858666666666665 -0.6204 -1.0858666666666665 -0.46533333333333327 0 -0.7756 0.46533333333333327 -0.7756 1.0858666666666665v0.15506666666666666c-0.15506666666666666 -0.15506666666666666 -0.46519999999999995 -0.15506666666666666 -0.6204 -0.31026666666666664V6.397333333333333c-0.15506666666666666 -0.7756 0.46533333333333327 -1.7062666666666666 1.396 -1.861333333333333Zm-0.46533333333333327 3.102133333333333c0.1552 0.1552 0.46533333333333327 0.31026666666666664 0.6205333333333333 0.31026666666666664 0.15506666666666666 0 0.46519999999999995 0.15506666666666666 0.6204 0.31026666666666664 0.3101333333333333 0.15506666666666666 0.6204 0.3101333333333333 0.6204 0.7754666666666666s-0.46533333333333327 0.9306666666666665 -1.396 1.2409333333333332c-0.3101333333333333 0.15506666666666666 -0.46533333333333327 0.15506666666666666 -0.6204 0.3101333333333333 -0.46533333333333327 0.31026666666666664 -0.9306666666666665 0.46533333333333327 -1.5510666666666666 0.46533333333333327 -0.46533333333333327 0 -0.9306666666666665 -0.3101333333333333 -1.2409333333333332 -0.6204 -0.15506666666666666 -0.15506666666666666 -0.3101333333333333 -0.31026666666666664 -0.6204 -0.46533333333333327 -0.15506666666666666 -0.15506666666666666 -0.46533333333333327 -0.46533333333333327 -0.6204 -0.9306666666666665 0 -0.15506666666666666 0.15506666666666666 -0.3101333333333333 0.3101333333333333 -0.46533333333333327 0.46533333333333327 -0.3101333333333333 0.6205333333333333 -0.46533333333333327 0.7756 -0.6204l0.15506666666666666 -0.15506666666666666c0.31026666666666664 -0.46533333333333327 0.9306666666666665 -0.7756 1.5510666666666666 -0.7756 0.46533333333333327 0.15506666666666666 0.9306666666666665 0.31026666666666664 1.396 0.6204ZM13.537333333333333 4.846266666666667c0.6204 0 1.0857333333333332 0.6204 1.2408 1.7061333333333333v0.31026666666666664c-0.15506666666666666 0 -0.46533333333333327 0.15506666666666666 -0.6204 0.3101333333333333V6.862666666666667c0 -0.46533333333333327 -0.31026666666666664 -0.9306666666666665 -0.6204 -0.7756 -0.31026666666666664 0 -0.46533333333333327 0.46533333333333327 -0.46533333333333327 0.9306666666666665 0 0.31026666666666664 0.15506666666666666 0.46533333333333327 0.3101333333333333 0.6204 0 0 -0.15506666666666666 0.1552 -0.3101333333333333 0.1552 -0.31026666666666664 -0.31026666666666664 -0.6205333333333333 -0.7756 -0.6205333333333333 -1.2409333333333332 0 -0.9306666666666665 0.46533333333333327 -1.7061333333333333 1.0858666666666665 -1.7061333333333333ZM11.986133333333331 29.818666666666665c-1.0857333333333332 0.46533333333333327 -2.481733333333333 0.31026666666666664 -3.4122666666666666 -0.3101333333333333 -0.9306666666666665 -0.46533333333333327 -1.7062666666666666 -0.6205333333333333 -2.792 -0.6205333333333333 -0.7756 -0.15506666666666666 -1.5510666666666666 -0.15506666666666666 -1.7062666666666666 -0.46533333333333327 -0.15506666666666666 -0.3101333333333333 -0.15506666666666666 -0.7754666666666666 0.1552 -1.5510666666666666 0.15506666666666666 -0.46533333333333327 0.15506666666666666 -0.9306666666666665 0 -1.3958666666666666 -0.1552 -0.46533333333333327 -0.1552 -0.7756 0 -1.2409333333333332 0.15506666666666666 -0.46533333333333327 0.46533333333333327 -0.6204 0.9306666666666665 -0.7756 0.46519999999999995 -0.15506666666666666 0.7754666666666666 -0.3101333333333333 1.0857333333333332 -0.6204 0.15506666666666666 -0.15506666666666666 0.3101333333333333 -0.3101333333333333 0.46533333333333327 -0.6204 0.46533333333333327 -0.6204 0.7754666666666666 -0.9306666666666665 1.2408 -0.9306666666666665 0.9306666666666665 0.15506666666666666 1.7062666666666666 1.5510666666666666 2.3266666666666667 2.9470666666666667 0.3101333333333333 0.46533333333333327 0.6204 1.0857333333333332 1.0857333333333332 1.5510666666666666 0.6204 0.7756 1.396 1.861333333333333 1.396 2.481733333333333 0 0.7756 -0.31026666666666664 1.2409333333333332 -0.7756 1.5510666666666666Zm7.6004000000000005 -3.4124c0 0.1552 0 0.1552 -0.15506666666666666 0.31026666666666664 -1.861333333333333 1.396 -4.343066666666666 1.5510666666666666 -6.359466666666666 0.46533333333333327l-0.9306666666666665 -1.396c1.396 -0.15506666666666666 1.0857333333333332 -2.0164 -1.861333333333333 -3.8777333333333335 -3.102133333333333 -2.0164 -0.9306666666666665 -5.738933333333333 0.15506666666666666 -7.4452 0.1552 -0.15506666666666666 0.1552 0 -0.46533333333333327 1.2409333333333332 -0.46533333333333327 0.9305333333333332 -1.3958666666666666 3.2571999999999997 -0.15506666666666666 4.963466666666666 0 -1.2409333333333332 0.31026666666666664 -2.481733333333333 0.7756 -3.722666666666666 1.0857333333333332 -2.0164 1.8611999999999997 -4.343066666666666 2.326533333333333 -6.6696 0.1552 0.15506666666666666 0.1552 0.15506666666666666 0.31026666666666664 0.15506666666666666 0.15506666666666666 0.15506666666666666 0.31026666666666664 0.31026666666666664 0.46533333333333327 0.31026666666666664 0.3101333333333333 0.46533333333333327 0.9306666666666665 0.6204 1.396 0.6204h0.15506666666666666c0.6204 0 1.2408 -0.15506666666666666 1.7061333333333333 -0.6204 0.1552 -0.1552 0.31026666666666664 -0.31026666666666664 0.6205333333333333 -0.31026666666666664 0.46533333333333327 -0.15506666666666666 0.9306666666666665 -0.46533333333333327 1.396 -0.9306666666666665 0.6204 2.0164 1.2408 3.8777333333333335 2.1714666666666664 5.583866666666666 0.6204 1.2409333333333332 1.0857333333333332 2.481733333333333 1.396 3.8777333333333335 0.46533333333333327 0 1.0857333333333332 0.15506666666666666 1.5510666666666666 0.46533333333333327 1.2408 0.6204 1.7061333333333333 1.0857333333333332 1.5510666666666666 1.861333333333333h-0.31026666666666664c0 -0.46533333333333327 -0.3101333333333333 -0.9306666666666665 -1.3958666666666666 -1.396 -1.0858666666666665 -0.46533333333333327 -2.0164 -0.46533333333333327 -2.3266666666666667 0.6204 -0.15506666666666666 0 -0.31026666666666664 0.1552 -0.46533333333333327 0.1552 -1.2408 0.6204 -1.2408 2.326533333333333 -1.396 4.0328 0.1552 0.6204 0 1.0857333333333332 -0.15506666666666666 1.7061333333333333Zm7.134933333333334 0.9306666666666665c-0.9306666666666665 0.31026666666666664 -1.7061333333333333 0.9306666666666665 -2.326533333333333 1.7062666666666666 -0.6205333333333333 0.9306666666666665 -1.7062666666666666 1.5510666666666666 -2.9470666666666667 1.396 -0.6205333333333333 0 -1.2409333333333332 -0.46533333333333327 -1.396 -1.0858666666666665 -0.15506666666666666 -0.9306666666666665 -0.15506666666666666 -1.8611999999999997 0.3101333333333333 -2.7918666666666665 0.1552 -0.6205333333333333 0.31026666666666664 -1.0858666666666665 0.46533333333333327 -1.7062666666666666 0.1552 -1.861333333333333 0.1552 -2.9470666666666667 0.9306666666666665 -3.4124 0 0.7756 0.46533333333333327 1.2409333333333332 1.0857333333333332 1.5510666666666666 0.7756 0 1.5512 -0.15506666666666666 2.1715999999999998 -0.7754666666666666h0.3101333333333333c0.46533333333333327 0 0.7756 0 1.0858666666666665 0.3101333333333333 0.3101333333333333 0.31026666666666664 0.46533333333333327 0.7756 0.46533333333333327 1.0858666666666665 0 0.46519999999999995 0.3101333333333333 0.9305333333333332 0.46519999999999995 1.3958666666666666 0.7756 0.7756 0.7756 1.2409333333333332 0.7756 1.396 -0.15506666666666666 0.31026666666666664 -0.7756 0.6204 -1.396 0.9306666666666665ZM12.761733333333334 8.724c-0.15506666666666666 0 -0.15506666666666666 0 -0.15506666666666666 0.15506666666666666 0 0 0 0.15506666666666666 0.15506666666666666 0.15506666666666666s0.15506666666666666 0.1552 0.15506666666666666 0.1552c0.46533333333333327 0.6204 1.2409333333333332 0.9306666666666665 2.1715999999999998 1.0857333333333332 0.7754666666666666 -0.15506666666666666 1.5510666666666666 -0.31026666666666664 2.326533333333333 -0.9306666666666665l0.9306666666666665 -0.46533333333333327c0.1552 0 0.1552 -0.15506666666666666 0.1552 -0.15506666666666666 0 -0.1552 0 -0.1552 -0.1552 -0.1552 -0.3101333333333333 0.1552 -0.7754666666666666 0.31026666666666664 -1.0857333333333332 0.46533333333333327 -0.6204 0.46533333333333327 -1.396 0.7756 -2.1714666666666664 0.7756 -0.7756 0 -1.396 -0.46533333333333327 -1.861333333333333 -0.9306666666666665 -0.15506666666666666 0 -0.31026666666666664 -0.15506666666666666 -0.46533333333333327 -0.15506666666666666Z" fill="#000000" stroke-width="1.3333"></path>
</svg>